<svg xmlns="http://www.w3.org/2000/svg" viewBox="0 0 400 400" fill="none" shape-rendering="auto"><metadata xmlns:rdf="http://www.w3.org/1999/02/22-rdf-syntax-ns#" xmlns:xsi="http://www.w3.org/2001/XMLSchema-instance" xmlns:dc="http://purl.org/dc/elements/1.1/" xmlns:dcterms="http://purl.org/dc/terms/"><rdf:RDF><rdf:Description><dc:title>Adventurer Neutral</dc:title><dc:creator>Lisa Wischofsky</dc:creator><dc:source xsi:type="dcterms:URI">https://www.figma.com/community/file/1184595184137881796</dc:source><dcterms:license xsi:type="dcterms:URI">https://creativecommons.org/licenses/by/4.0/</dcterms:license><dc:rights>Remix of „Adventurer Neutral” (https://www.figma.com/community/file/1184595184137881796) by „Lisa Wischofsky”, licensed under „CC BY 4.0” (https://creativecommons.org/licenses/by/4.0/)</dc:rights></rdf:Description></rdf:RDF></metadata><mask id="viewboxMask"><rect width="400" height="400" rx="0" ry="0" x="0" y="0" fill="#fff" /></mask><g mask="url(#viewboxMask)"><rect fill="#46b361" width="400" height="400" x="0" y="0" /><g transform="translate(-279 -322)"><path d="M574.47 426.48c13.52 3.69 25.28 11.87 34.03 22.75 7.5-5.17 14.74-10.73 22.37-15.71l3.07 1.28c-.34 2.1-.24 3.64-2.24 4.9-6.6 4.8-13.31 9.45-19.92 14.23 3.77 6.35 7.07 12.73 8.56 20.03 1.59 7.69 2.58 16.11 1.14 23.88-.44 2.76-3.06 3.5-5.47 3.7-19.7 1.03-39.42 3.02-59 5.35-11.08 1.45-22.17 1.92-33.23 3.57-4.5.68-9.03 1.18-13.54 1.79-5 .7-9.54 1.77-14.54.33-4.84-13.86-5.54-28.92-1.07-42.97a65.16 65.16 0 0 1 28.7-36.27c15.07-9.25 34.17-11.67 51.14-6.87Z" fill="#000"/><path d="M565.47 430.38a59.78 59.78 0 0 1 42.62 28.54c6.6 11.12 9.16 23.82 8.14 36.67-4.76.39-9.48.96-14.25 1.17-18 1.19-35.9 3.32-53.81 5.48 1.05-2.96 2.25-6.07 2.52-9.2.8-9.38-4.1-18.83-12.31-23.45-5.3-3.21-11.43-3.75-17.45-2.72-11.6 2.17-20.3 13.34-19.52 25.13.01 6.06 2.65 11.12 6.33 15.74l-7.3.74a59.26 59.26 0 0 1 1.6-42.39 59.24 59.24 0 0 1 33.74-32.46c9.48-3.74 19.65-4.48 29.7-3.26Z" fill="#fff"/><path d="M416.52 455.44a55 55 0 0 1 24.5 36.47 57.74 57.74 0 0 1-1.23 25.16c-5.34 1.1-10.4.57-15.8.57-24.03-.24-48-.16-72 1.46-5.86-.14-12.62 1.57-17.83-1.24-.94-4.53-2.07-9.19-2.27-13.82-.34-10.1 2.17-19.99 6.82-28.94-6-3.98-12.33-7.55-18.2-11.72-1.9-1.41-1.7-2.69-.83-4.69 2.76-1.07 4.5.5 6.78 1.81 5.07 3.31 10.17 6.56 15.27 9.82a55.77 55.77 0 0 1 31.73-21.84 55.28 55.28 0 0 1 43.05 6.97Z" fill="#000"/><path d="M400.8 454.53a49.36 49.36 0 0 1 29.24 23.44 48.95 48.95 0 0 1 5.07 34.42l-5.61.12c2.13-4.63 3.58-9.36 2.88-14.52-.9-8.64-7.3-16.11-15.55-18.64a23.51 23.51 0 0 0-11.81-.2c-9.02 2.14-16.25 10.53-16.65 19.85-.47 4.7.89 8.93 2.74 13.17-13.38.11-26.76.61-40.1 1.61-3.69.2-7.9.7-11.5-.24-1.65-3.05-1.64-7.15-1.79-10.54-.55-13.95 5.57-28 15.83-37.42 12.47-11.6 30.9-16 47.25-11.05Z" fill="#fff"/></g><g transform="translate(-279 -322)"><path d="M414.18 389.84c-5.5-7.26-14.52-9.33-23.2-8.38-13.12 1.9-24.56 8.53-34.46 17.08-10.76 9.47-19.88 21.7-24.72 35.27-.66 1.92-1.27 4.69 1.03 5.74 2.1.24 2.83.08 4.11-1.6 11.58-14.9 26.26-27.61 43.54-35.44 8.2-3.6 17.55-6.09 26.55-5.69 1.03.04 2.1.21 3.15.39 1.67.27 3.35.55 4.96.3 2.9-2.23.74-5.27-.86-7.53l-.1-.14ZM592.9 408.15c-18.2-10.23-38.04-17.1-58.92-18.97-10.05-.75-21.44-.2-30.72 4.09-6.76 3.16-12.37 8.56-13.57 16.22l-.12.95c-.38 2.89-.88 6.8 1.32 8.78 1.99.78 3.6-.34 5.23-1.46.74-.51 1.49-1.03 2.27-1.36 13.86-6.86 30.29-9.28 45.61-9.7 15.48.06 31.36 2.13 46.03 7.2l.48.13c1.46.4 2.74.74 3.89-.62 1.8-1.88.48-4.24-1.5-5.25Z" fill="#000"/></g><g transform="translate(-279 -322)"><path d="M550 573.51c1.46 0 3.54-.33 4.63.86 1.79 1.55.73 4.5-1.6 4.72-5.3.8-10.73.62-16.06 1.3-4.86.63-9.72 1.27-14.57 1.92a72.83 72.83 0 0 1 6.07 20.52c1.1 9.46.5 18.83-4.44 27.2a27.94 27.94 0 0 1-18.97 13.18c-9.3 1.52-18.57-.3-27.06-4.22-13.14-6.16-23.89-15.8-32.58-27.32-6.65 4.89-13 10.1-18.5 16.27-1.57 1.58-3.5 3.91-5.73 1.87-1.86-1.74-.28-4.03 1.06-5.54 9.67-10.78 21.93-19.53 34.63-26.4 28.47-15.26 61.04-22.5 93.12-24.35Z" fill="#000"/><path d="M516.86 583.39c1.15 3.94 2.8 7.7 3.96 11.64 2.13 6.95 2.55 14.24 1.79 21.44-1.11 7.19-4.63 14.3-11.1 18.07-7.43 4.5-16.62 4-24.65 1.5-15.04-4.85-26.95-15.23-36.46-27.58a164.36 164.36 0 0 1 29.3-14.53c1.71 2.36 3.26 5.1 5.41 7.07 1.42 1.48 4.45.11 4.09-2-.39-2.39-2.78-4.37-3.81-6.57-.12-.47.13-.76.75-.88 9.98-3.5 20.34-6.12 30.72-8.16Z" fill="#EA869E"/></g><g transform="translate(-279 -322)"><path fill-rule="evenodd" clip-rule="evenodd" d="M608 415.8c6.19-.15 12.37-.17 18.55-.18 4.48-.01 8.97-.03 13.45-.1.56.02 1.13.02 1.7.02 3.1 0 6.25.02 9.3.5 2.58.53 5.61 1.94 6.1 4.83a38.9 38.9 0 0 1-1.15 17c-.46 1.76-1.74 2.09-3.35 2.33-3.46.36-6.95.57-10.42.78l-3.76.23c.12 4.28.38 8.64.64 13.02.7 11.72 1.4 23.63-.44 34.8a87.76 87.76 0 0 1-5.73 21.83c-3.11 8.55-9.1 16.19-15.42 22.62-9.83 10.36-22.25 18.39-36.2 21.8a115.5 115.5 0 0 1-33.23 2.17c-9.22-1.58-18.8-3.87-27.06-8.4-10.5-6.05-18.47-15.05-24.78-25.29-8.17-12.62-11.9-27.18-15.47-41.59-.52-2.19-.84-4.45-1.17-6.71-.42-2.83-.83-5.67-1.61-8.37-.48-1.78-2.64-3.07-4.17-3.9-6.7-3.36-16.4-.94-18.99 6.6-.5 2.84-.55 5.75-.6 8.66-.06 2.86-.11 5.73-.59 8.55-2 13.03-4.77 26.14-10.56 38.06-5.55 11.58-11.7 22.03-22.47 29.5-12.88 7.76-28.34 13.44-43.57 11.92-6.86-.15-14.05-1.4-20.36-4.13-6.87-3.71-13.8-8.11-18.84-14.16-10.32-12.28-16.95-27.7-20.8-43.17-1.86-6.83-3.03-13.81-2.96-20.9-1.64.23-3.27.55-4.9.87-2.4.46-4.79.93-7.2 1.16a5.27 5.27 0 0 1-5.36-2.69c-1.96-3.76-2.46-8.38-1.77-12.53l.12-.54c.23-1.1.47-2.3 1.61-2.79 27.43-12.56 55.94-20.6 85.48-26.45 11.24-2.31 22.47-3.81 33.98-3.07a61.95 61.95 0 0 1 28.86 7.05c10.79 4.81 24.5 5.41 35.15-.12 3.04-1.48 4.93-3.68 6.93-5.99a39.5 39.5 0 0 1 3.95-4.14c9.81-9.08 23.1-13.26 36.12-14.8 13.1-2.37 26.26-3 39.52-3.65l2.5-.12c5.54-.15 11.1-.15 16.65-.15 7.44 0 14.89 0 22.32-.36Zm-23 6.26c8.34-.34 16.32-.45 24.15 2.9.65.3 1.37.6 2.11.9 3.17 1.31 6.86 2.83 7.89 5.97 5.81 12.4 8.22 26.56 8.39 40.17.56 12.44-.87 25.5-5.2 37.22-3.72 9.79-10.5 17.11-18.26 23.88-5.21 4.32-11.62 7.5-17.78 10.22-9.15 3.83-19.3 6.8-29.3 6.15-5.8-.34-11.57-1.78-17.2-3.18l-.87-.23c-5.96-1.47-10.69-4.56-15.7-7.85l-.86-.56c-6.8-4.54-12.23-10.46-17.08-16.98-2.77-3.93-4.56-8.67-6.3-13.25l-1.22-3.16c-4.64-11.94-5.98-24.55-5.87-37.28.1-7.74 1.2-16.94 5.51-23.55 5.14-6.46 12.01-12.24 19.83-15.08 9.27-2.8 19.13-4.25 28.78-4.96 11.57-1.28 23.17-1.3 34.65-1.33H585Zm-172.35 22.06c-.9-.02-1.78-.04-2.66-.08-8.61-.87-17.85.94-26.5 2.63l-3.48.68c-2.29.52-4.57 1-6.84 1.5-9.4 2.01-18.63 4-27.68 7.65-.9.36-1.84.71-2.78 1.07-5.77 2.17-12.01 4.53-14.95 10.19-4.84 9.87-3.73 19.61-2.56 29.93l.37 3.3c1.93 11.76 6.83 23.24 13.14 33.32 5.06 8.01 10.9 15.08 19.42 19.57 12.78 7.1 27.95 6.15 41.4 1.57 11.36-4.43 21.76-9.82 28.56-20.38 8.84-14.04 13.92-30.65 15.47-47.12.91-9.38-.1-18.83-2.68-27.88-.46-1.39-.98-2.92-1.89-4.09-5.19-5.6-11.6-9.87-19.19-11.35-2.33-.4-4.76-.46-7.15-.51Z" fill="#000"/></g></g></svg>