<svg xmlns="http://www.w3.org/2000/svg" viewBox="0 0 210 210" fill="none" shape-rendering="auto"><metadata xmlns:rdf="http://www.w3.org/1999/02/22-rdf-syntax-ns#" xmlns:xsi="http://www.w3.org/2001/XMLSchema-instance" xmlns:dc="http://purl.org/dc/elements/1.1/" xmlns:dcterms="http://purl.org/dc/terms/"><rdf:RDF><rdf:Description><dc:title>Face Generator</dc:title><dc:creator>The Visual Team</dc:creator><dc:source xsi:type="dcterms:URI">https://www.figma.com/community/file/986078800058673824</dc:source><dcterms:license xsi:type="dcterms:URI">https://creativecommons.org/licenses/by/4.0/</dcterms:license><dc:rights>Remix of „Face Generator” (https://www.figma.com/community/file/986078800058673824) by „The Visual Team”, licensed under „CC BY 4.0” (https://creativecommons.org/licenses/by/4.0/)</dc:rights></rdf:Description></rdf:RDF></metadata><mask id="viewboxMask"><rect width="210" height="210" rx="0" ry="0" x="0" y="0" fill="#fff" /></mask><g mask="url(#viewboxMask)"><rect fill="#e8453c" width="210" height="210" x="0" y="0" /><g transform="translate(86.8 138.9) scale(.71856)"><path d="M82 34.6c0 16.9-24.2 4-54.2 4-29.9 0-54.2 12.9-54.2-4C-26.4 17.6-2 4 27.8 4c30 0 54.3 13.7 54.3 30.6Z" fill="#DE8383"/><path fill-rule="evenodd" clip-rule="evenodd" d="M69.2 15.1c-9.8 3.2-24.8 5.3-41.7 5.3-16.5 0-31.2-2-41-5.1A71 71 0 0 1 28 3.5C44.7 3.5 59.6 8 69.2 15Z" fill="#F9F9F9"/></g><g transform="translate(2 11) scale(.71856)"><ellipse cx="92.3" cy="93.8" rx="19.7" ry="32.2" fill="#fff"/><ellipse cx="195.9" cy="93.8" rx="18.7" ry="32.2" fill="#fff"/><ellipse cx="96.5" cy="93.8" rx="15.6" ry="25.9" fill="#000"/><ellipse cx="191.8" cy="92.8" rx="14.5" ry="24.9" fill="#000"/><path d="M63 48.3c2-1.4 13-8.3 29-8.3s31 6.9 29 8.3c0 16-3 0-28.1 0-27 0-30 16-30 0ZM167 48.3c2-1.4 13-8.3 29-8.3s31 6.9 29 8.3c0 16-3 0-28.1 0-27 0-29.9 16-29.9 0Z" fill="#000"/></g><g transform="translate(15 89.2) scale(.71856)"></g><g transform="translate(80.3 79.8) scale(.71856)"><path d="M37 14v27c-3.7.7-11 4-11 10.5 0 8.2 7.3 10.5 11 11.7" stroke="#000" stroke-opacity=".5" stroke-width="4" stroke-linecap="round" stroke-linejoin="round"/></g></g></svg>